<svg xmlns="http://www.w3.org/2000/svg" xmlns:xlink="http://www.w3.org/1999/xlink" data-name="Layer 1" viewBox="0 0 788.51 533.32"><defs><linearGradient id="f" x1="358.87" x2="430.39" y1="321.82" y2="441.2" gradientUnits="userSpaceOnUse"><stop offset="0" stop-color="#68e1fd"/><stop offset=".01" stop-color="#67ddf9"/><stop offset=".12" stop-color="#5cb3ce"/><stop offset=".24" stop-color="#538ea9"/><stop offset=".37" stop-color="#4c718b"/><stop offset=".5" stop-color="#465a73"/><stop offset=".63" stop-color="#424a63"/><stop offset=".79" stop-color="#404059"/><stop offset=".99" stop-color="#3f3d56"/></linearGradient><linearGradient id="b" x1="427.86" x2="454.31" y1="110.07" y2="110.07" gradientUnits="userSpaceOnUse"><stop offset="0" stop-color="#ecc4d7"/><stop offset=".42" stop-color="#efd4d1"/><stop offset="1" stop-color="#f2eac9"/></linearGradient><linearGradient id="a" x1="419.65" x2="442.48" y1="103.09" y2="103.09" gradientUnits="userSpaceOnUse"><stop offset="0" stop-color="#183866"/><stop offset="1" stop-color="#1a7fc1"/></linearGradient><linearGradient id="g" x1="427.43" x2="442.21" y1="96.51" y2="125.55" xlink:href="#a"/><linearGradient id="d" x1="422.67" x2="301.4" y1="240.87" y2="249.43" gradientUnits="userSpaceOnUse"><stop offset=".21" stop-color="#68e1fd" stop-opacity="0"/><stop offset=".22" stop-color="#66daf6" stop-opacity=".04"/><stop offset=".35" stop-color="#58a1bc" stop-opacity=".39"/><stop offset=".48" stop-color="#4d758f" stop-opacity=".66"/><stop offset=".62" stop-color="#45566f" stop-opacity=".85"/><stop offset=".78" stop-color="#40435c" stop-opacity=".96"/><stop offset=".99" stop-color="#3f3d56"/></linearGradient><linearGradient id="h" x1="382.13" x2="431.18" y1="106.58" y2="106.58" xlink:href="#b"/><linearGradient id="i" x1="429.73" x2="434.9" y1="113.6" y2="123.77" xlink:href="#b"/><linearGradient id="j" x1="358.89" x2="385.76" y1="323.31" y2="323.31" xlink:href="#b"/><linearGradient id="c" x1="419.51" x2="368.53" y1="135.28" y2="193.39" gradientUnits="userSpaceOnUse"><stop offset="0" stop-color="#68e1fd" stop-opacity="0"/><stop offset=".99" stop-color="#3f3d56"/></linearGradient><linearGradient id="k" x1="411.81" x2="423.98" y1="160.01" y2="160.01" xlink:href="#c"/><linearGradient id="l" x1="380.25" x2="407.72" y1="119.65" y2="183.75" xlink:href="#c"/><linearGradient id="m" x1="443.58" x2="402.56" y1="208.33" y2="352.79" gradientUnits="userSpaceOnUse"><stop offset="0" stop-color="#68e1fd" stop-opacity="0"/><stop offset=".02" stop-color="#66daf6" stop-opacity=".04"/><stop offset=".18" stop-color="#58a1bc" stop-opacity=".39"/><stop offset=".35" stop-color="#4d758f" stop-opacity=".66"/><stop offset=".53" stop-color="#45566f" stop-opacity=".85"/><stop offset=".73" stop-color="#40435c" stop-opacity=".96"/><stop offset=".99" stop-color="#3f3d56"/></linearGradient><linearGradient id="n" x1="474.33" x2="444.15" y1="156.19" y2="217.18" xlink:href="#d"/><linearGradient id="o" x1="474.82" x2="442.17" y1="193.02" y2="44.24" xlink:href="#d"/><linearGradient id="e" x1="496.93" x2="936.65" y1="340.91" y2="485.34" gradientUnits="userSpaceOnUse"><stop offset="0" stop-color="#68e1fd" stop-opacity="0"/><stop offset=".27" stop-color="#58a0bb" stop-opacity=".39"/><stop offset=".56" stop-color="#4a6a84" stop-opacity=".73"/><stop offset=".8" stop-color="#424962" stop-opacity=".93"/><stop offset=".99" stop-color="#3f3d56"/></linearGradient><linearGradient id="p" x1="581.78" x2="885.65" y1="311.62" y2="410.29" xlink:href="#e"/></defs><g opacity=".18"><path fill="#68e1fd" d="M787.51,462A107.72,107.72,0,0,1,785,477.46c0,.06,0,.13-.05.19-12,48.75-58.91,75.15-148.37,72.7-152-4.17-349.85-49.76-466.47-27C110.66,535,68.54,511.33,44.28,477.65l-.14-.19h0A130.61,130.61,0,0,1,34.58,462c-15.39-29.36-18.92-62.85-10.29-86.87,20.83-58,64.56-81.72,70.81-147.94S81.57,130.7,159.65,60.23c0,0,82.78-67.16,170.77-21.38,73.47,38.23,119,35.26,149,24.21l.11,0c18.38-6.79,30.89-16.61,40.39-21.78,25-13.6,145.78-66.22,197.84,48.59,42.54,93.83,7.21,117.36,23.55,194.1.48,2.25,1,4.54,1.58,6.89.42,1.75.88,3.53,1.36,5.34v0c1.37,5.15,3,10.53,4.83,16.18,3.27,9.94,7.35,20.7,12.4,32.43.06.13.12.27.17.4a382.64,382.64,0,0,1,19.59,56.11,206.86,206.86,0,0,1,6.69,43.19A133.49,133.49,0,0,1,787.51,462Z" opacity=".22" transform="translate(-18.96 -17.38)" style="isolation:isolate"/></g><g opacity=".18"><path fill="#68e1fd" d="M787.51,462A107.72,107.72,0,0,1,785,477.46c0,.06,0,.13-.05.19-12,48.75-58.91,75.15-148.37,72.7-152-4.17-349.85-49.76-466.47-27C110.66,535,68.54,511.33,44.28,477.65l-.14-.19h0A130.61,130.61,0,0,1,34.58,462c-15.39-29.36-18.92-62.85-10.29-86.87,20.83-58,64.56-81.72,70.81-147.94S81.57,130.7,159.65,60.23c0,0,82.78-67.16,170.77-21.38,73.47,38.23,119,35.26,149,24.21l.11,0c18.38-6.79,30.89-16.61,40.39-21.78,25-13.6,145.78-66.22,197.84,48.59,42.54,93.83,7.21,117.36,23.55,194.1.48,2.25,1,4.54,1.58,6.89.42,1.75.88,3.53,1.36,5.34v0c1.37,5.15,3,10.53,4.83,16.18,3.27,9.94,7.35,20.7,12.4,32.43.06.13.12.27.17.4a382.64,382.64,0,0,1,19.59,56.11,206.86,206.86,0,0,1,6.69,43.19A133.49,133.49,0,0,1,787.51,462Z" opacity=".22" transform="translate(-18.96 -17.38)" style="isolation:isolate"/></g><g opacity=".18"><path fill="#68e1fd" d="M786.79,462a107.72,107.72,0,0,1-2.55,15.51c0,.06,0,.13,0,.19-12,48.75-58.91,75.15-148.37,72.7-152-4.17-349.85-49.76-466.47-27C109.94,535,67.82,511.33,43.56,477.65l-.14-.19h0A130.61,130.61,0,0,1,33.86,462c-15.39-29.36-18.92-62.85-10.29-86.87,20.83-58,64.56-81.72,70.81-147.94S80.85,130.7,158.93,60.23c0,0,82.78-67.16,170.77-21.38,73.47,38.23,119,35.26,149,24.21l.11,0c18.38-6.79,30.89-16.61,40.39-21.78C544.19,27.65,665-25,717,89.84c42.54,93.83,7.21,117.36,23.55,194.1.48,2.25,1,4.54,1.58,6.89.42,1.75.88,3.53,1.36,5.34v0c1.37,5.15,3,10.53,4.83,16.18,3.27,9.94,7.35,20.7,12.4,32.43.06.13.12.27.17.4a382.64,382.64,0,0,1,19.59,56.11,206.86,206.86,0,0,1,6.69,43.19A133.49,133.49,0,0,1,786.79,462Z" opacity=".22" transform="translate(-18.96 -17.38)" style="isolation:isolate"/></g><path fill="#68e1fd" d="M626,290.83s11.94-15,32.58-18.77,80.15-3,80.15-3l2.63,14.86Z" transform="translate(-18.96 -17.38)"/><path fill="#68e1fd" d="M787.51,462A107.72,107.72,0,0,1,785,477.46c0,.06,0,.13-.05.19H44.28l-.14-.19h0A130.61,130.61,0,0,1,34.58,462Z" opacity=".27" transform="translate(-18.96 -17.38)"/><rect width="49.22" height="71.19" x="553.79" y="378.2" fill="#3f3d56" rx="12.66"/><path fill="#68e1fd" d="M784.68,477.65c-11.92,48.87-58.84,75.34-148.41,72.89-152-4.17-349.86-49.76-466.48-27C110.27,535.21,68.1,511.43,43.86,477.65Z" opacity=".27" transform="translate(-18.96 -17.38)"/><polygon fill="#fff" points="131.45 460.27 53.74 479.23 107.8 478.67 182.22 460.39 131.45 460.27"/><polygon fill="#fff" points="252.71 460.27 175 479.23 229.06 478.67 303.48 460.39 252.71 460.27"/><polygon fill="#fff" points="373.97 460.27 296.26 479.23 350.32 478.67 424.74 460.39 373.97 460.27"/><polygon fill="#fff" points="495.23 460.27 417.52 479.23 471.57 478.67 545.99 460.39 495.23 460.27"/><polygon fill="#fff" points="616.49 460.27 538.77 479.23 592.83 478.67 667.25 460.39 616.49 460.27"/><polygon fill="#fff" points="737.74 460.27 660.03 479.23 714.09 478.67 788.51 460.39 737.74 460.27"/><path fill="#000405" d="M631.83,477.65c-18.77,6.66-38.13,11.85-57.4,17-21.28,5.7-42.77,11.42-64.79,12.3a149.3,149.3,0,0,1-39.53-3.73c-4.25-1-8.52-2.15-12.88-2.12-7.84.08-15,4-22.33,6.9-20,7.85-42.08,7.72-63.55,7.49l-91.67-1c-16.45-.18-34.66-1-46.45-12.52-1.62-1.57-3.18-3.58-3-5.85.31-4.05,5.43-5.51,9.47-5.94,23.52-2.51,47.13-4.58,70.58-7.68,9.3-1.23,18.49-3,27.65-4.85Z" opacity=".05" transform="translate(-18.96 -17.38)"/><polygon fill="#25233a" points="423.52 274.15 396.69 371.81 340.86 449.38 323.36 437.53 362.16 361.48 355.65 284.76 410.66 261.17 423.52 274.15"/><path fill="#3f3d56" d="M488.81,457.31l-19.58,11.86s-20-68.09-33.92-88.57C403,333,376.53,301.39,376.53,301.39L423,278.84l.58-.29,9.15,20.83,37,64.17,4.68,20.61Z" transform="translate(-18.96 -17.38)"/><polygon fill="#3f3d56" points="312.57 365.33 307.7 406.36 387.6 415.92 404.34 413.87 397.22 340.01 393.06 335.3 312.57 365.33"/><polygon fill="url(#f)" points="388.37 414.3 392.95 350.06 396.93 342.1 402.06 412.16 388.37 414.3" style="isolation:isolate"/><path fill="#3f3d56" d="M359.88,331.47s-6.78,4-7.12,15.4h5.12s.34-8.37,4.27-9.22Z" transform="translate(-18.96 -17.38)"/><path fill="url(#b)" d="M447,113.81l7.36,8.57-8.92,8.26-6.45-6.07-4.61-1.08a7.69,7.69,0,0,1-5.85-6.28,21,21,0,0,0-.46-2.16c-1-3.79,3-26.31,5.5-25.53,5.72,1.83,7.65,15.15,9.36,16.17S447,113.81,447,113.81Z" transform="translate(-18.96 -17.38)"/><path fill="url(#a)" d="M441,116.69c-1.65,1-7.18,3.75-7.18,3.75a4.06,4.06,0,0,1-2.79-.22h0a2,2,0,0,1-.73-.81c-.24-.48-2.4-7-2.4-7l-2.77-7.55-5.48-15,9.49-4a3.24,3.24,0,0,1,4.3,1.89l8.93,25.18A3.5,3.5,0,0,1,441,116.69Z" transform="translate(-18.96 -17.38)"/><path fill="url(#g)" d="M439.78,115.68c-1.11.52-8.74,4.54-8.74,4.54h0a2,2,0,0,1-.73-.81c-.24-.48-2.4-7-2.4-7l-2.77-7.55-2.35-10.1L431,86.33l9.68,27.39A2,2,0,0,1,439.78,115.68Z" transform="translate(-18.96 -17.38)"/><path fill="#68e1fd" d="M443.62,301.61,430.3,278.55l-15.38,26.64s-25.53-.24-41.08-3.37l-2-.43c-6-1.4-10.09-3.31-9.66-5.93.4-2.4,2-9.7,3.13-19.46a159.66,159.66,0,0,0,.78-31.82c-.72-8.39-4.41-16.9-7.19-24.61a53.73,53.73,0,0,1-3.05-11.17c-1.06-8.58-2.07-15.17-2.9-18-1.2-4.13-1.54-10-1.37-16.11.31-12.11,2.58-25.23,3.94-28S369,138,376.43,134.87c3.33-1.43,5.7-2.36,5.7-2.36h29.72l25.62,14.35s5,31.26,5.7,37.76c.66,6.34-7.56,33.17-8.26,40.3C433.19,242.68,443.62,301.61,443.62,301.61Z" transform="translate(-18.96 -17.38)"/><path fill="url(#d)" d="M392.4,234.82l-15.87,66.57h-4.72c-6-1.4-10.09-3.31-9.66-5.93.77-4.61,6-27.74,3.92-51.28-1.11-12.77-9-25.67-10.25-35.78L375,187Z" transform="translate(-18.96 -17.38)" style="isolation:isolate"/><path fill="#fff" d="M382.13,132.51l35.7,58.07s-1.54-43-3.76-50.55S382.13,132.51,382.13,132.51Z" transform="translate(-18.96 -17.38)"/><path fill="url(#h)" d="M390,112.36s-4.68,18.86-7.86,20.15A24.86,24.86,0,0,0,398,142.59c3.64.7,18.33,2,16.11-2.56s-2.22-7.52-2.22-7.52V125s12,3.75,13.16-1.54,7.17-14.58,6-37.12-35.75-16.63-40.54-13S382.19,98.75,390,112.36Z" transform="translate(-18.96 -17.38)"/><path fill="#091240" d="M401.53,60.54a37,37,0,0,1,8.41-.58A35.22,35.22,0,0,1,423,62.33c4.09,1.77,7.74,4.94,9.26,9.14a25.84,25.84,0,0,1,1.16,6.67,7.84,7.84,0,0,1-.13,3,2.66,2.66,0,0,1-2.08,1.93c-1.56.16-3-1.56-4.47-1.09-.95.29-1.43,1.33-2.22,1.93-1.65,1.25-4,.27-5.82-.67S414.38,81.5,413,83c-1.14,1.17-1.21,3.47-2.8,3.84a3.13,3.13,0,0,1-1.29-.06c-2.94-.57-6.39-1.18-8.57.86a9,9,0,0,0-2.13,4.44q-.74,2.74-1.46,5.47l-2.9-3.07a2.38,2.38,0,0,0-.88-.67,2,2,0,0,0-2,.93,6.08,6.08,0,0,0,2.28,8.91,2.64,2.64,0,0,1,1.11.65,2,2,0,0,1,.32.89c.55,3.21-.6,6.49-2.3,9.26a4.8,4.8,0,0,1-2.49,2.32c-1.12.32-2.57-.47-2.48-1.62l-2.12.76a44,44,0,0,1-2-9.25c-1.16-8.28-2.32-16.56-2.78-24.9a22.06,22.06,0,0,1,.54-7.65,8.25,8.25,0,0,1,4.9-5.56c1.55-.51,2.62-.58,3.81-1.63A31.27,31.27,0,0,1,393,64.09,24.16,24.16,0,0,1,401.53,60.54Z" transform="translate(-18.96 -17.38)"/><path fill="#68e1fd" d="M485.42,193.44c-4.45,0-42.25-8.82-42.25-8.82l-3.45-22.86-2.25-14.9s13.84,8,16.75,11.1,7.68,2,7.68,2L442.09,133.7l12.22-11.32,4.17-3.88,17.59,20.84s11.62,16.06,16.23,26.81a19.3,19.3,0,0,1,1.4,5.81h0C494.61,182,489.11,193.44,485.42,193.44Z" transform="translate(-18.96 -17.38)"/><path fill="url(#i)" d="M428,115.05s2-4.79,3.05-5,1.54,4.74.69,5.93-.13,5.08.21,5.43S427.37,119.32,428,115.05Z" transform="translate(-18.96 -17.38)"/><path fill="#68e1fd" d="M373.84,301.82l1.12,3.37-16.13,6.27-2.32.91s-28.18-56.88-29.72-64.05,10.25-71.23,28.7-102a50.31,50.31,0,0,1,4.83,3c6.46,4.41,17.4,13.62,20.05,26.77l-21.5,43.5-7.36,14.91L365.28,276Z" transform="translate(-18.96 -17.38)"/><path fill="url(#j)" d="M372.71,306.07s11.81,10.91,12.67,13.3,0,8.71,0,8.71h-2.22l-.51,6.83s-1,4.79-3.42,4.62a24.78,24.78,0,0,0-6.52,1s-8.34-.68-10.56-2.9S358.73,325,358.9,322.1s0-11.44,0-11.44Z" transform="translate(-18.96 -17.38)"/><path fill="#3f3d56" d="M385.38,328.08s4.21-.34,6.49,9.22,1.82,13,1.82,13h-6.15s-1.47-15.39-4.77-17l.39-5.23Z" transform="translate(-18.96 -17.38)"/><path fill="#3f3d56" d="M416.18 357.38l-3.63 26.55a6.66 6.66 0 01-7.22 5.73l-73.8-7a6.63 6.63 0 01-6-7.57l3.48-24.24a6.64 6.64 0 017-5.69L410 349.84a6.65 6.65 0 016.18 7.54zM476.76 478.9L472 467.47l15-9.1 6.36 14.9s21.09.68 30.65 9.9l4.1 7.86H476.93zM337 466.6l7.71-9.9 11.68 7.59-4.92 10.41 7.57 14.51s5.59-.23 11.79 5 4.11 6.6 4.11 6.6H344.27L326.66 474.7S333 467 337 466.6z" transform="translate(-18.96 -17.38)"/><path fill="#68e1fd" d="M385.31 127.4s-8.64 0-9.15 5.11l2.73 19 10.42 4.27-2.05 10.59 30.57 24.25-35.7-58.07A19.3 19.3 0 00385.31 127.4zM417.23 134.05l-5.38-4.61a19.66 19.66 0 00.76 6.92c1.06 2.8 6.08 45.68 5.22 54.22L424 160l-5.29-9 2.05-6.49z" transform="translate(-18.96 -17.38)"/><polygon fill="#68e1fd" points="386.57 125.95 384.18 132.27 388.79 137.17 387.7 155.07 398.87 173.21 398.07 155.2 391.53 136.49 392.85 131.02 390 125.88 386.57 125.95"/><path fill="url(#c)" d="M385.31,127.4s-8.64,0-9.15,5.11l2.73,19,10.42,4.27-2.05,10.59,30.57,24.25-35.7-58.07A19.3,19.3,0,0,0,385.31,127.4Z" transform="translate(-18.96 -17.38)" style="isolation:isolate"/><path fill="url(#k)" d="M417.23,134.05l-5.38-4.61a19.66,19.66,0,0,0,.76,6.92c1.06,2.8,6.08,45.68,5.22,54.22L424,160l-5.29-9,2.05-6.49Z" transform="translate(-18.96 -17.38)" style="isolation:isolate"/><polygon fill="url(#l)" points="386.57 125.95 384.18 132.27 388.79 137.17 387.7 155.07 398.87 173.21 398.07 155.2 391.53 136.49 392.85 131.02 390 125.88 386.57 125.95" style="isolation:isolate"/><path fill="url(#m)" d="M420.74,195.37l9.33,14.46.23,68.72,13.32,23.06s-13-57.76-8.71-76.69,2.56-22,2.56-22Z" transform="translate(-18.96 -17.38)" style="isolation:isolate"/><path fill="#fff" d="M332.58,244.18c2.77,10.78,29.57,65.4,29.57,65.4l-3.32,1.88-2.32.91s-28.18-56.88-29.72-64.05,10.25-71.23,28.7-102c1.41-2.82,13.54-8.33,20.94-11.47l.63,5.55-16.74,8.88s-3.89,10.72-8.77,25C342.76,200,330.78,237.25,332.58,244.18Z" opacity=".24" transform="translate(-18.96 -17.38)"/><path fill="url(#n)" d="M485.42,193.44c-4.45,0-42.25-8.82-42.25-8.82l-3.45-22.86,0-.38,38.58,17.22S493.08,182,493.7,172C494.61,182,489.11,193.44,485.42,193.44Z" transform="translate(-18.96 -17.38)" style="isolation:isolate"/><path fill="url(#o)" d="M461.9,160s10.33,18.05,16.45,18.59a52.26,52.26,0,0,0,8.37.31l2.1-12-34.51-44.54L442.09,133.7Z" transform="translate(-18.96 -17.38)" style="isolation:isolate"/><path fill="#fff" d="M488.81 457.31l-5.08 2.95s-19.61-90.77-22-96S421 294.63 421 294.63L423 278.84l.58-.29 9.15 20.83 37 64.17 4.68 20.61zM416.18 357.38l-3.63 26.55a6.66 6.66 0 01-7.22 5.73l-73.8-7a6.7 6.7 0 01-5.06-3.15h3.29l66.77 6s9.49.9 11.71-5.61S413.39 351 413.39 351A6.66 6.66 0 01416.18 357.38z" opacity=".24" transform="translate(-18.96 -17.38)"/><polygon fill="#fff" points="386.37 372.28 381.64 408.34 307.7 406.36 387.6 415.92 391.49 370.56 386.37 372.28" opacity=".24"/><path fill="#68e1fd" d="M787.94 444.5l-193.23-2.75s-6.76-2.82-8.45-8.45-1.69-51.81 0-60.64S602 350.29 602 350.29s13.51-34.12 16.87-48.9 24.68-17.45 24.68-17.45h97.73c.84 3.93 1.81 8 2.94 12.23v0c1.37 5.15 3 10.53 4.83 16.18 3.27 9.94 7.35 20.7 12.4 32.43.06.13.12.27.17.4q5.57 12.93 10 25.16 1.62 4.49 3.08 8.88 3.81 11.37 6.53 22.07A231.13 231.13 0 01786.77 430Q787.69 437.48 787.94 444.5zM680.1 136.33c-4.35-.79-8.84-.91-13.05-2.26q3.18 4.74 6.37 9.47a56.24 56.24 0 006.45 8.42c3.53 3.59 8.18 6.27 13.21 6.62a14.63 14.63 0 0010-3c4.28-3.45 1.82-5.52-1.58-8.6A43.61 43.61 0 00680.1 136.33zM634.42 111.87a35.07 35.07 0 01-2.34 3.86l3.79-.84a19.67 19.67 0 003.47-1 7.12 7.12 0 003.74-3.36 5 5 0 00.3-3.55c-.56-1.79-1.52-1.27-2.93-.58A15 15 0 00634.42 111.87zM161.83 163.23a49.6 49.6 0 01-6.2-1.08l3 4.5a27.23 27.23 0 003.06 4A10.09 10.09 0 00168 173.8a6.94 6.94 0 004.77-1.44c2-1.64.86-2.62-.75-4.09A20.72 20.72 0 00161.83 163.23zM134.79 250.29a35.9 35.9 0 01-2.34 3.85l3.79-.84a19.67 19.67 0 003.47-1 7.18 7.18 0 003.75-3.36 5 5 0 00.29-3.55c-.56-1.79-1.52-1.27-2.92-.58A14.9 14.9 0 00134.79 250.29z" transform="translate(-18.96 -17.38)"/><path fill="#3f3d56" d="M761.66,345.2H626a7.06,7.06,0,0,1-6.79-8.95l8-28.64a22.93,22.93,0,0,1,22.09-16.78h93.65c.42,1.75.88,3.53,1.36,5.34v0c1.37,5.15,3,10.53,4.83,16.18,3.27,9.94,7.35,20.7,12.4,32.43C761.55,344.93,761.61,345.07,761.66,345.2Z" transform="translate(-18.96 -17.38)"/><path fill="url(#e)" d="M786.77,430a10.71,10.71,0,0,1-5.69,1.63H613.88A10.72,10.72,0,0,1,603.16,421V390a10.72,10.72,0,0,1,10.72-10.73H774.72q3.81,11.37,6.53,22.07A231.13,231.13,0,0,1,786.77,430Z" transform="translate(-18.96 -17.38)" style="isolation:isolate"/><path fill="url(#p)" d="M771.64,370.36H686.21C673,354.15,626,345.2,626,345.2H761.66Q767.23,358.13,771.64,370.36Z" transform="translate(-18.96 -17.38)" style="isolation:isolate"/><rect width="35.04" height="35.04" x="592.08" y="372.31" fill="#fff" rx="10.68"/><path fill="#68e1fd" d="M773.9,399.51H671.74a3.26,3.26,0,0,1-3.26-3.26h0a3.26,3.26,0,0,1,3.26-3.26H773.9a3.26,3.26,0,0,1,3.26,3.26h0A3.26,3.26,0,0,1,773.9,399.51Z" transform="translate(-18.96 -17.38)"/><rect width="108.68" height="6.53" x="649.52" y="384.82" fill="#68e1fd" rx="3.26"/><path fill="#68e1fd" d="M773.9,417.92H671.74a3.26,3.26,0,0,1-3.26-3.26h0a3.26,3.26,0,0,1,3.26-3.26H773.9a3.26,3.26,0,0,1,3.26,3.26h0A3.26,3.26,0,0,1,773.9,417.92Z" transform="translate(-18.96 -17.38)"/><path fill="#fff" d="M698.8,269.31,703,257.64a10.21,10.21,0,0,1,9.62-6.79h24.23l1.87,18.23Z" transform="translate(-18.96 -17.38)"/><polygon fill="#222a72" points="708.27 233.47 716.72 251.94 719.72 251.71 717.85 233.47 708.27 233.47" opacity=".16"/></svg>