<svg height="1227.533" viewBox="0 0 590.702 1227.533" width="590.702" xmlns="http://www.w3.org/2000/svg"><path d="m435.351 591.5a30.428 30.428 0 0 1 -6.031 5.3c-14.326 9.568-43.105 21.132-100.292 25.354-54.422 4.018-89.861-5.331-108.079-12.419a21.989 21.989 0 0 1 -12.949-13.527c-6.741 13.181-17.988 45.429-17.939 113.873.118 165.217.972 164.159.972 164.159s-80.533 79.424-122.179 191.817l55 42s53.484-61.381 121.672-140.421c36.743-42.589 43.585-71.146 49.976-87.274 11.68-29.476 27.828-63.614 40.736-99.316l47.3 108.294s-1.716 25.614-1.716 63.535c0 61.2 16.712 164.044 16.712 164.044h69.644s11.3-108.462 16.294-183.793c2.287-34.488 2.947-33.667 2.947-65.718.003-93.998-51.779-276.235-52.068-275.908z" fill="#ff002a"/><path d="m468.182 1122.919h-69.646a6 6 0 0 1 -5.922-5.039c-.167-1.033-16.789-104.028-16.789-165 0-32.6 1.281-56.451 1.637-62.461l-40.8-93.4c-6.584 17.042-13.646 33.517-20.524 49.562-5.437 12.682-10.572 24.661-15.063 35.994-.86 2.171-1.765 4.677-2.723 7.329-6.352 17.596-15.952 44.18-48.282 81.651-67.418 78.145-121.158 139.83-121.693 140.445a6 6 0 0 1 -8.165.827l-55-42a6 6 0 0 1 -1.984-6.854c38.045-102.673 109.093-179.041 121.672-192.047l-.009-.3c-.11-3.557-.214-9.766-.309-18.455-.292-26.915-.471-76.394-.518-143.089-.05-69.727 11.63-102.989 18.6-116.609a6 6 0 0 1 11.037.84 15.961 15.961 0 0 0 9.429 9.835c15.986 6.22 50.942 16.051 105.463 12.027 56.617-4.179 84.217-15.553 97.4-24.359a24.422 24.422 0 0 0 4.842-4.259 6 6 0 0 1 6.63-1.674c2.846 1.068 3.458 3.144 4.3 6.017.406 1.38.99 3.412 1.726 6.029 1.238 4.408 3.281 11.806 5.98 22.016 4.407 16.668 11.1 42.87 17.93 73.041 11.872 52.4 26.023 125.195 26.023 174.419 0 24.708-.4 30.262-1.6 46.746-.371 5.091-.819 11.25-1.357 19.37-4.947 74.58-16.2 182.931-16.312 184.016a6 6 0 0 1 -5.973 5.382zm-64.517-12h59.1c2.33-22.821 11.42-113.347 15.721-178.19.541-8.151.991-14.335 1.362-19.445 1.208-16.6 1.572-21.6 1.572-45.876 0-79.361-38.525-227.567-49.183-265.337-14.532 9.566-44.106 21.744-102.769 26.074-54.025 3.99-90.019-4.765-110.7-12.81a28.265 28.265 0 0 1 -9.748-6.347c-6.085 16.655-13 47.409-12.963 101.089.1 145.138.786 161.527.906 163.284a6 6 0 0 1 -1.721 5.149c-.786.777-78.1 77.883-119.207 185.486l46.984 35.878c13.255-15.229 60.665-69.745 117.96-136.157 30.88-35.795 40.031-61.129 46.087-77.892.99-2.742 1.925-5.332 2.853-7.673 4.552-11.488 9.719-23.541 15.19-36.3 8.667-20.219 17.63-41.126 25.482-62.843a6 6 0 0 1 11.141-.361l47.3 108.293a5.99 5.99 0 0 1 .489 2.8c-.017.255-1.7 25.882-1.7 63.136.004 52.342 12.535 136.678 15.844 158.042zm-210.852-242.409a6 6 0 0 1 4.045 4.291c.033.135.061.269.085.4a6 6 0 0 0 -4.13-4.691zm-.011 0h.008zm-.013 0h.005z" fill="#ff002a"/><path d="m342.242 805.675a6 6 0 0 1 -5.634-8.061l29.3-80.181a6 6 0 0 1 11.271 4.119l-29.3 80.181a6 6 0 0 1 -5.637 3.942z"/><path d="m96.1 1092.872a6 6 0 0 1 -5.012-9.291c.343-.524 35.277-53.521 117.455-154.337 20.107-24.667 25.679-37.864 26.575-83.706.681-34.765.915-64.613 1.122-90.948.486-61.86.78-99.2 6.412-117.977a6 6 0 0 1 11.5 3.447c-5.141 17.138-5.446 55.92-5.907 114.625-.208 26.367-.442 56.253-1.124 91.087-.9 45.938-6.37 62.957-29.272 91.054-81.789 100.34-116.381 152.816-116.721 153.335a5.993 5.993 0 0 1 -5.028 2.711z"/><path d="m404.041 899.541a6.052 6.052 0 0 1 -1.21-.123l-20.5-4.2a6 6 0 0 1 -1.8-11.074l25.73-14.844a6 6 0 0 1 6 10.392l-12.034 6.947 5.012 1.028a6 6 0 0 1 -1.2 11.879z"/><path d="m196.99 900.228a6.005 6.005 0 0 1 -5.667-4.029l-6.957-19.986a6 6 0 0 1 7.735-7.606l23.035 8.455a6 6 0 0 1 -4.136 11.266l-11.134-4.087 2.79 8.013a6 6 0 0 1 -5.667 7.974z"/><path d="m398.537 1116.919s-6.152 52.912-3.218 82.516v22.1h162.545s1.082-15.067.311-23.2c-1.026-10.817-6.3-18.824-33.667-24.784-58.458-12.734-56.327-56.628-56.327-56.628z" fill="#fff"/><path d="m557.864 1227.534h-162.544a6 6 0 0 1 -6-6v-21.806c-2.9-29.947 3-81.323 3.256-83.5a6 6 0 0 1 5.96-5.306h69.646a6 6 0 0 1 5.993 6.291c-.059 1.558-.863 39.045 51.61 50.474 26.094 5.685 36.85 14.118 38.364 30.08.808 8.535-.255 23.565-.3 24.2a6 6 0 0 1 -5.985 5.567zm-156.544-12h150.88a138.637 138.637 0 0 0 0-16.637c-.567-5.994-1.275-13.455-28.97-19.488-32.425-7.063-47.311-23.532-54.089-36.1a59 59 0 0 1 -6.59-20.386h-58.623c-1.438 14.052-4.939 52.713-2.638 75.924a5.867 5.867 0 0 1 .03.592z"/><path d="m558.266 1205.435h-162.946a6 6 0 1 1 0-12h162.946a6 6 0 1 1 0 12z"/><path d="m442.442 1205.436a6 6 0 0 1 -5.873-4.8c-6.093-29.92-40.773-35.123-42.247-35.33a6 6 0 0 1 1.63-11.888c1.817.247 44.569 6.489 52.374 44.824a6 6 0 0 1 -5.884 7.2z"/><path d="m524.226 1205.435a6 6 0 0 1 -6-6v-25.889a6 6 0 0 1 12 0v25.889a6 6 0 0 1 -6 6z"/><path d="m453.125 1148.7a6 6 0 0 1 -2.276-11.555l18.73-7.671a6 6 0 0 1 4.549 11.106l-18.73 7.671a6 6 0 0 1 -2.273.449z"/><path d="m468.259 1168.93a6 6 0 0 1 -4.3-10.188l12.66-12.988a6 6 0 1 1 8.594 8.376l-12.66 12.989a5.983 5.983 0 0 1 -4.294 1.811z"/><path d="m489.432 1181.943a6 6 0 0 1 -5.317-8.773l6.841-13.129a6 6 0 0 1 10.643 5.545l-6.841 13.128a6 6 0 0 1 -5.326 3.229z"/><path d="m68.854 1066.057s-30.229 30.446-47.278 56.316q-1.116 1.693-2.127 3.254l-13.449 19.998 85.183 75.908h78.3a113.459 113.459 0 0 0 -.478-17.672c-1.364-12.226-1.348-26.891-30.17-40.1-42.985-19.7-14.985-55.7-14.985-55.7z" fill="#fff"/><path d="m169.488 1227.534h-78.3a6 6 0 0 1 -3.992-1.521l-85.188-75.908a6 6 0 0 1 -.986-7.828l13.42-19.956q1.011-1.56 2.125-3.25c17.18-26.071 46.777-55.981 48.033-57.241a6 6 0 0 1 7.9-.541l55 42a6 6 0 0 1 1.095 8.452c-.094.121-10.326 13.641-7.052 26.855 1.973 7.96 8.635 14.591 19.8 19.709 30.4 13.933 32.149 30.708 33.427 42.956q.1.978.206 1.935a119.086 119.086 0 0 1 .5 18.726 6 6 0 0 1 -5.988 5.612zm-76.02-12h70.164a103.811 103.811 0 0 0 -.586-11.008c-.074-.666-.144-1.339-.216-2.019-1.192-11.423-2.318-22.213-26.491-33.294-14.695-6.735-23.6-16.1-26.472-27.825-3.181-13 2.128-25.292 5.934-31.931l-46.352-35.4c-8.495 8.876-29.8 31.8-42.863 51.612q-1.1 1.675-2.1 3.217c-.019.029-.037.057-.057.085l-10.529 15.659z"/><path d="m168.65 1205.435h-66.929a6 6 0 0 1 -4.007-1.534l-82.272-73.808a6 6 0 1 1 8.013-8.931l80.563 72.273h64.632a6 6 0 1 1 0 12z"/><path d="m52.714 1161.476a6 6 0 0 1 -5.3-8.8c7.366-13.987 8.147-27.139 2.322-39.091a41.872 41.872 0 0 0 -10.8-13.8 6 6 0 0 1 7.158-9.631 53.376 53.376 0 0 1 14.429 18.177c5.22 10.711 9.025 28.069-2.491 49.94a6 6 0 0 1 -5.318 3.205z"/><path d="m119.6 1205.435a6 6 0 0 1 -4.845-9.533l24.21-33.234a6 6 0 1 1 9.7 7.066l-24.21 33.234a5.991 5.991 0 0 1 -4.855 2.467z"/><path d="m116.676 1128.246a5.926 5.926 0 0 1 -.934-.074l-18.434-2.872a6 6 0 0 1 1.851-11.856l18.435 2.878a6 6 0 0 1 -.918 11.929z"/><path d="m99.035 1150.707a6 6 0 0 1 -.715-11.957l17.437-2.119a6 6 0 1 1 1.447 11.913l-17.437 2.118a6.042 6.042 0 0 1 -.732.045z"/><path d="m111.186 1172.339a6 6 0 0 1 -2.8-11.308l16.849-8.885a6 6 0 0 1 5.6 10.615l-16.848 8.885a5.974 5.974 0 0 1 -2.801.693z"/><path d="m385.183 134.44c-3.961-5.772-14.518-7.016-23.88-22.422-1.8-9.684-5.175-34.048-27.163-39.575 0 0-47.594 8.41-44.76 61.781 0 0-9.037-13.736-18.943-13.978-10.356-.252-18.744 8.786-16.329 20.138 3.652 17.165 19.411 22.563 19.411 22.563s.406 30.335-26.417 37.081c4.16 23.626-8.2 34.267-8.2 34.268s21.649 34.358 64.912 35.229c25.216.508 38.8-14.866 33.855-26.644l-6.652-22.509a76.54 76.54 0 0 1 -1.6-9.324l-.065-.56a60.072 60.072 0 0 0 35.243-19.464c18.048-20.447 13.163-42.942 13.163-42.942 5.357-2.519 10.821-8.696 7.425-13.642z" fill="#fff"/><path d="m273.519 162.946s-15.759-5.4-19.411-22.562c-2.415-11.352 5.973-20.39 16.329-20.138 9.906.241 18.943 13.978 18.943 13.978-2.834-53.371 44.76-61.781 44.76-61.781s20.147-12.283 20.147-33.829c0-8.7-1.957-20.115-13.153-32.614 0 0 .285 25.919-30.018 42.4l-.11-.115s-40.832-23.518-80.878 2.949c-28.369 18.75-55.31 54.151-35.261 99.3 14.386 32.394 37.17 44.771 52.234 49.5 26.824-6.751 26.418-37.088 26.418-37.088z" fill="#17adff"/><path d="m247.1 206.029a6.014 6.014 0 0 1 -1.8-.275c-17.216-5.4-40.893-18.946-55.922-52.788-9.849-22.175-10.013-43.876-.489-64.5 7.36-15.939 20.829-30.94 37.926-42.24 36.757-24.294 73.578-9.815 84.2-4.688 24.053-14.558 24.117-35.259 24.114-35.474a6 6 0 0 1 10.471-4.064c9.881 11.032 14.683 23.009 14.683 36.617 0 24.632-22.083 38.379-23.023 38.952a6 6 0 0 1 -2.079.785c-1.711.315-42.321 8.311-39.814 55.554a6 6 0 0 1 -11 3.616c-2.4-3.619-9.012-11.153-14.076-11.276a10.34 10.34 0 0 0 -8.3 3.675 10.641 10.641 0 0 0 -2.019 9.216c2.868 13.48 15.008 17.963 15.523 18.148a6.05 6.05 0 0 1 4.018 5.583c.163 12.133-6.1 36.729-30.952 42.98a6.009 6.009 0 0 1 -1.461.179zm24.815-161.453a68.707 68.707 0 0 0 -38.478 11.664c-13.4 8.855-55.382 41.65-33.087 91.855 12.725 28.656 32.2 40.657 46.89 45.666 15.654-4.85 19.229-20.04 20.041-27.106a37.236 37.236 0 0 1 -19.042-25.022 22.7 22.7 0 0 1 4.524-19.378 22.256 22.256 0 0 1 17.82-8.006c4.968.121 9.53 2.45 13.306 5.339 2.7-21.034 13.581-33.752 23.179-41.046a67.852 67.852 0 0 1 24.7-11.729c3.324-2.329 16.517-12.562 16.517-28.2a38.224 38.224 0 0 0 -4.179-17.913c-3.7 9.975-11.911 23.07-30.124 32.976a6 6 0 0 1 -6.412-.431 79.383 79.383 0 0 0 -35.655-8.669z" fill="#17adff"/><path d="m316.5 217.679a70.427 70.427 0 0 1 -14.811-1.431 6 6 0 0 1 2.7-11.691c1.389.315 33.79 7.324 55.7-17.5 15.686-17.769 11.958-36.921 11.791-37.727a6.037 6.037 0 0 1 3.317-6.673c2.973-1.4 4.915-3.886 5.029-4.826-.822-1.157-2.752-2.394-4.983-3.823-5.253-3.364-12.446-7.971-19.07-18.873a5.985 5.985 0 0 1 -.771-2.021l-.266-1.459c-1.786-9.9-5.072-28.112-21.183-33.034-7.072 1.689-40.88 12.058-38.585 55.287a6 6 0 0 1 -11 3.616c-2.4-3.619-9.012-11.153-14.076-11.276a10.388 10.388 0 0 0 -8.3 3.675 10.641 10.641 0 0 0 -2.019 9.216c2.868 13.48 15.008 17.963 15.523 18.148a6.05 6.05 0 0 1 4.018 5.583c.163 12.133-6.1 36.729-30.953 42.98a6 6 0 1 1 -2.927-11.636c17.017-4.281 20.8-20.254 21.643-27.556a37.236 37.236 0 0 1 -19.042-25.022 22.7 22.7 0 0 1 4.524-19.378 22.256 22.256 0 0 1 17.82-8.006c4.968.121 9.53 2.45 13.306 5.339 2.7-21.034 13.581-33.752 23.179-41.046a66.435 66.435 0 0 1 26.036-12.01 6 6 0 0 1 2.507.089c24.727 6.216 29.364 31.922 31.344 42.9l.054.3c5 7.859 10.153 11.157 14.717 14.08 3.219 2.063 6.26 4.01 8.411 7.145a11.9 11.9 0 0 1 1.654 10.013c-1.154 4.254-4.315 7.746-7.586 10.13a59.171 59.171 0 0 1 -15.113 43.808c-16.788 19.011-38.411 22.679-52.588 22.679z"/><ellipse cx="338.07" cy="122.506" rx="9.091" ry="12.5" transform="matrix(.99138096 -.13101069 .13101069 .99138096 -13.136 45.348)"/><path d="m278.591 65.112a6 6 0 0 1 -1.025-11.912c57.321-10.008 57.573-46.764 57.568-47.134a6 6 0 0 1 5.933-6.066h.068a6 6 0 0 1 6 5.932c0 .5.039 12.5-8.613 25.775-7.73 11.857-24.222 27.261-58.892 33.314a5.94 5.94 0 0 1 -1.039.091z"/><path d="m238.9 240.3a6 6 0 0 1 -3.968-10.5c.5-.461 9.693-9.214 6.258-28.727a6 6 0 0 1 11.818-2.08c4.7 26.683-9.587 39.332-10.2 39.857a5.977 5.977 0 0 1 -3.908 1.45z"/><path d="m331.008 226.374a6 6 0 0 1 -5.853-4.707 81.222 81.222 0 0 1 -1.725-10.144 6 6 0 0 1 11.962-.964 73.849 73.849 0 0 0 1.48 8.52 6.007 6.007 0 0 1 -5.864 7.295z"/><path d="m581.924 227.756c-13.122-48.466-59.1-102.462-59.1-102.462a229.893 229.893 0 0 0 -39.672-37.95c-14.865-11.018-26.784-13.118-37.958-12.344-22.757 1.567-32.681 2.779-36.125 3.225-15.767 2.045-13.977 16.575-3.631 19 18.743 4.389 28.707 5.8 28.707 5.8 4.8 17.127 10.569 32.831 34.114 49.646l28.216 80.366c-36.649-1.63-136.406-3.7-136.406-3.7l-29.069-9.027 6.666 22.572c4.942 11.778-8.639 27.152-33.855 26.644-43.263-.871-64.911-35.226-64.911-35.226s-25.558 6.719-38.364 19.237c0 0-55.991 14-103.009 76.2-48.795 64.55-74.11 106.358-51.246 165.011 5.654 14.5 58.887 90.289 88.093 117.244-13.784 33.261-35.239 65.61-49.56 84.893-9.169 12.338-11.114 75.615 83.836 132.494 0 0 56.891-70.492 94.606-209 17.63 2.537 39.479 3.72 65.772 1.779 57.187-4.222 85.966-15.786 100.292-25.354a30.428 30.428 0 0 0 6.031-5.3c39.466 82.065 58.08 204.413 58.08 204.413s7.248-73.577-30.1-223.687c-13.042-52.416-28.506-106.176-32.119-220.716 0 0 106.978-23.366 135.686-55.729 20.248-22.828 19.917-49.964 15.026-68.029zm-410.311 192a584.4 584.4 0 0 1 -8.22 90.267v.006c-6.622-14.266-14.411-29.866-23.589-46.8 5.231-8.594 22.719-31.623 31.81-43.47z" fill="#fff"/><path d="m163.4 516.028a6.006 6.006 0 0 1 -5.922-7.007 577.067 577.067 0 0 0 8.136-89.318 6 6 0 1 1 12 .113 589.241 589.241 0 0 1 -8.306 91.217 6 6 0 0 1 -5.908 4.995z"/><path d="m168.647 835.38a5.983 5.983 0 0 1 -3.08-.853c-67.648-40.527-85.008-83.116-89.335-104.897-2.977-14.982-1.5-29.24 3.761-36.324 9.648-12.99 33.721-47.141 48.833-83.61a6 6 0 1 1 11.086 4.594c-15.625 37.71-40.371 72.823-50.286 86.172-2.121 2.856-4.438 12.666-1.624 26.83 3.843 19.344 19.276 56.9 79.133 94.133 7.131-9.779 25.453-36.609 45.646-79.681 23.824-50.815 55.2-135.278 69.38-249.086a6 6 0 0 1 11.909 1.484c-14.408 115.625-46.37 201.494-70.645 253.169-26.408 56.213-49.151 84.654-50.107 85.838a6 6 0 0 1 -4.671 2.231z"/><path d="m288.123 499.4a6.139 6.139 0 0 1 -.75-.047 6 6 0 0 1 -5.212-6.7c7.288-58.486-52.617-109.914-53.222-110.427a6 6 0 0 1 -1.8-6.52l4.464-13.072h-13.138a6 6 0 0 1 -5.5-3.613c-31.165-71.888-18.577-106.221-18.026-107.65a6 6 0 0 1 1.4-2.128c13.782-13.472 39.927-20.457 41.033-20.748a6 6 0 0 1 6.865 8.539c-.05.11-8.792 19.463 10.151 59.923 34.339 73.34 47.157 129.162 41.562 180.994-.584 5.406-1.216 10.845-1.88 16.167v.024a6 6 0 0 1 -5.947 5.258zm-48.344-123.58c8.365 7.706 31.274 30.571 44.744 61.133-3.055-38.975-16.312-82.18-41-134.909-13.092-27.96-14.212-47.444-12.923-58.744-7.613 2.812-17.98 7.409-24.8 13.523-1.6 6.043-7.452 36.476 16.628 93.816h17.561a6 6 0 0 1 5.677 7.939z"/><path d="m200.361 627.693a6 6 0 0 1 -5.975-5.529c-.048-.581-4.981-54.8-59.858-156.076a6 6 0 0 1 .15-5.978c7.268-11.94 36.552-49.691 37.8-51.293a6 6 0 1 1 9.478 7.359c-.278.359-25.96 33.465-35.189 47.317 54.733 101.926 59.409 155.487 59.583 157.739a6 6 0 0 1 -5.522 6.443c-.156.012-.312.018-.467.018z"/><path d="m134.367 617.993a5.98 5.98 0 0 1 -4.067-1.593c-29.871-27.575-83.455-103.688-89.608-119.477-11.4-29.252-11.814-56.12-1.287-84.555 9.481-25.612 27.437-51.991 53.335-86.252 47.746-63.162 103.97-77.812 106.34-78.4a6 6 0 1 1 2.912 11.641c-.955.247-54.8 14.635-99.679 74-46.185 61.1-72.627 102.3-50.442 159.213 4.933 12.655 57.577 88.255 86.569 115.018a6 6 0 0 1 -4.072 10.409z"/><path d="m139.8 469.23a5.991 5.991 0 0 1 -2.05-.361c-.093-.033-10.92-3.847-30.672-5.292a6 6 0 0 1 .877-11.969c5.424.4 10.232.961 14.4 1.586a67.334 67.334 0 0 0 -13-9.1 6 6 0 1 1 5.554-10.636c17.478 9.125 29.293 25.6 29.789 26.294a6 6 0 0 1 -4.9 9.473z"/><path d="m168.361 711.743a30.587 30.587 0 0 1 -13.052-3.014c-15.656-7.38-41.383-27.568-48.085-52.939a6 6 0 1 1 11.6-3.065c5.616 21.254 28.5 38.974 41.6 45.15 5.413 2.554 13.794 3.165 19.6-3.515 17.307-19.931 25.976-52.281 29.464-68.773-14.66 4.5-43.044 8.773-77.754-8.205a6 6 0 0 1 5.273-10.779c44.218 21.627 76.133 4.9 77.47 4.175a6.009 6.009 0 0 1 8.816 6.1c-.313 2.238-7.979 55.146-34.209 85.351a27.164 27.164 0 0 1 -20.723 9.514z"/><path d="m305.008 275.538q-.655 0-1.318-.013c-45.967-.926-68.912-36.515-69.867-38.029a6 6 0 0 1 10.149-6.4c.877 1.375 20.664 31.644 59.96 32.435 14.459.305 23.378-5.121 26.885-10.283 1.322-1.948 2.625-4.922 1.316-8.04a6 6 0 1 1 11.066-4.643c2.606 6.213 1.71 13.293-2.458 19.427-6.65 9.783-19.941 15.546-35.733 15.546z"/><path d="m468.254 158.661a5.977 5.977 0 0 1 -3.482-1.117c-23.256-16.61-30.306-32.247-35.341-49.214-4.562-.788-13.095-2.4-25.361-5.27-7.673-1.8-12.974-8.421-12.6-15.75.3-5.97 4.891-13.49 16.83-15.039 8.067-1.045 20.682-2.173 36.484-3.261 15.009-1.049 27.941 3.135 41.941 13.513a236.316 236.316 0 0 1 40.724 38.947 6 6 0 1 1 -9.249 7.647 224.172 224.172 0 0 0 -38.622-36.954c-14.706-10.9-25.428-11.765-33.969-11.182-15.567 1.072-27.935 2.176-35.767 3.19-3.79.492-6.3 1.962-6.388 3.746-.066 1.313 1.065 2.923 3.355 3.46 18.191 4.259 28.082 5.682 28.18 5.7a6 6 0 0 1 4.936 4.319c4.7 16.762 10.031 30.82 31.824 46.385a6 6 0 0 1 -3.492 10.883z"/><path d="m431.2 357.515a6 6 0 0 1 -1.274-11.862c1.051-.231 105.4-23.319 132.477-53.849 21.19-23.886 16.658-51.651 13.726-62.479-10.709-39.552-44.638-83.755-54.908-96.518l-45.551 22.849 26.466 75.383a6 6 0 0 1 -5.928 7.981c-46.152-2.053-135.352-3.674-136.248-3.69a6 6 0 0 1 .217-12c.843.015 79.754 1.449 127.7 3.331l-25.277-72.013a6 6 0 0 1 2.971-7.351l54.562-27.367a6 6 0 0 1 7.259 1.474c1.913 2.246 47.005 55.585 60.325 104.784 3.441 12.709 8.739 45.318-16.331 73.579-29.664 33.441-134.447 56.638-138.894 57.609a6.033 6.033 0 0 1 -1.292.139z"/><path d="m517.734 258.74a5.974 5.974 0 0 1 -2.205-.423c-.715-.284-17.6-7.126-24.544-22.871a6 6 0 0 1 10.98-4.84c4.926 11.173 17.873 16.51 18 16.563a6 6 0 0 1 -2.234 11.571z"/><path d="m480.341 129.205a5.979 5.979 0 0 1 -1.783-.273c-11.653-3.623-18.7-12.125-21.711-16.551l-23.567-3.429a6 6 0 1 1 1.729-11.875l26.327 3.831a6 6 0 0 1 4.46 3.171c.039.072 5.444 10.011 16.324 13.394a6 6 0 0 1 -1.779 11.732z"/><path d="m385.813 469.667a6 6 0 0 1 -5.823-4.571c-.187-.766-.365-1.534-.535-2.309a668.337 668.337 0 0 1 -21.418-111.387c-4.892-44.824-15.746-79.69-23.99-101.046a201.556 201.556 0 0 1 -8.892-28.684 6.029 6.029 0 0 1 7.483-7.129c12.394 3.516 29.143 9.04 29.311 9.095a6 6 0 0 1 1.874 1.018c34.019 27.294 43.052 101.5 43.419 104.643a6 6 0 0 1 -3.674 6.245l-5.593 2.3 7.473 9.158a6 6 0 0 1 .924 6.013c-.252.635-24.689 62.8-15.266 106.869q.3 1.05.6 2.1a6 6 0 0 1 -4.119 7.418c-.029.009-.058.017-.088.024-.081.024-.163.046-.246.067a6.01 6.01 0 0 1 -1.44.176zm-46.351-240.589c1.39 4.746 3.264 10.432 5.78 16.952 8.5 22.022 19.691 57.953 24.725 104.064 2.269 20.776 5.249 40.444 9.089 59.756a302.691 302.691 0 0 1 14.9-57.947l-10.391-12.738a6 6 0 0 1 2.365-9.341l8.764-3.61c-2.435-15.978-12.386-70.344-37.566-91.533-2.661-.871-9.975-3.247-17.666-5.603z"/><path d="m493.429 801.917a6 6 0 0 1 -5.93-5.1c-.184-1.215-18.942-122.424-57.555-202.714-21.493-44.691-37.776-86.829-49.78-128.822a6 6 0 0 1 11.537-3.3c11.816 41.333 27.863 82.849 49.057 126.92 19.57 40.693 34.111 91.506 43.814 132.5-3.777-36.054-11.532-85.291-27.066-147.723q-1.393-5.6-2.816-11.232c-12.234-48.616-26.1-103.719-29.477-210.743-.862-20.271-3.707-31.351-3.735-31.46a6 6 0 0 1 11.6-3.063c.131.492 3.2 12.285 4.124 34.078 3.338 105.8 17.037 160.232 29.123 208.259q1.427 5.664 2.824 11.264c37.173 149.4 30.551 222.677 30.251 225.723a6 6 0 0 1 -5.813 5.41z"/><path d="m303.426 629.128a288.731 288.731 0 0 1 -41.017-2.8 6 6 0 0 1 1.709-11.877 300.065 300.065 0 0 0 64.469 1.726c56.617-4.179 84.217-15.553 97.4-24.359a24.422 24.422 0 0 0 4.842-4.259 6 6 0 1 1 9.043 7.889 36.4 36.4 0 0 1 -7.22 6.348c-14.382 9.607-43.958 21.976-103.182 26.348q-13.306.983-26.044.984z"/></svg>