<?xml version="1.0" encoding="UTF-8" standalone="no" ?>
<!DOCTYPE svg PUBLIC "-//W3C//DTD SVG 1.1//EN" "http://www.w3.org/Graphics/SVG/1.1/DTD/svg11.dtd">
<svg xmlns="http://www.w3.org/2000/svg" xmlns:xlink="http://www.w3.org/1999/xlink" version="1.1" width="640" height="640" viewBox="0 0 640 640" xml:space="preserve">
<desc>Created with Fabric.js 4.6.0</desc>
<defs>
</defs>
<g transform="matrix(1 0 0 1.46 191.19 281.89)" id="Mr8AmGbf06eg2NOwC2Pry"  >
<path style="stroke: rgb(34,109,104); stroke-width: 2; stroke-dasharray: 8 8; stroke-linecap: round; stroke-dashoffset: 0; stroke-linejoin: miter; stroke-miterlimit: 1; fill: rgb(216,216,216); fill-opacity: 0; fill-rule: nonzero; opacity: 1;" vector-effect="non-scaling-stroke"  transform=" translate(-191.19, -205.39)" d="M 121.868 57.273 C 178.468 24.492 196.375 40.362 219.734 58.074 C 228.282 64.556 238.061 102.245 240.383 113.475 C 243.304 127.599 238.195 145.386 233.038 158.371 C 229.096 168.297 237.906 206.862 230.838 215.006 C 221.801 225.419 195.702 236.309 176.141 239.831 C 170.251 240.891 143.026 242.131 131.667 217.097 C 122.115 196.044 120.948 196.748 130.08 173.995 C 140.875 147.096 162.196 151.828 167.47 150.249 C 184.012 145.295 214.89 163.558 218.656 180.566 C 224.139 205.332 243.581 251.838 267.007 270.512 C 274.448 276.444 291.392 278.399 300.48 279.354 C 330.551 282.512 333.24 251.895 328.161 240.396 C 323.235 229.245 323.579 218.193 299.324 222.963 C 288.009 225.188 281.607 231.173 277.595 240.05 C 272.065 252.288 266.806 253.14 264.078 266.334 C 260.76 282.386 342.47 314.901 351.202 329.784 C 376.123 372.261 351.432 369.157 300.621 372.472 C 271.516 374.371 -0.106 324.755 22.744 359.649" stroke-linecap="round" />
</g>
</svg>