<svg height="482.059" viewBox="0 0 403.65 482.059" width="403.65" xmlns="http://www.w3.org/2000/svg"><path d="m158.179 101.584s3.625-28.566 33.359-26.315c23.024 1.744 20.548 31.659 20.548 31.659s9.247-22.035 27.369-.033c-5.409-13.209 2.363-19.654 11.94-20.023-12.226-22.262 10.26-43.07 29.54-34.761-8.729-54.389 83.722-84.387 92.652 3.168 57.834 37.8 20.513 115.369-32.9 99.3-3.575 41.974-53.645 34.431-49.482 5.866-5.777 3.615-15.166.115-15.166.115s-9 33.078-40.57 25.919c-22.588-5.123-21.089-34.257-18.832-42.369a12.786 12.786 0 0 1 -13.368-4.169c-2.038 18.581-23.92 29.555-39.124 24.614s-14.723-33.533-14.723-33.533z" fill="#ffebd4"/><path d="m226.767 481.849s-8.426-20.161-24.35-16.736c-5.644-13.646-23.929-13.66-23.929-13.66s-1.475-24.58-29.132-14.83c11.878-22.609-7.116-35.448-19.7-34.2 3.5-17.833-9.294-37.9-41.572-27.2 8.9-16.79-7.75-23.008-7.75-23.008s6.153-16.312-13.5-24.747c37.234-20.026 20.692-58.638 3.506-64.4 37.78-12.146 27.674-40.55 27.674-40.55s41.986 6.792 52.792-26.5c36.757-1.761 35.186-49.335 7.247-53.379-9.22-29.826-31.519-17.391-37.6-2.916-16.512-16.052-38.81-3.617-39.212 13.847-27.245-5.248-47.541 28.3-35 46.224-26.419 6.173-17.688 27.347-8.921 37.28-31.27 8.231-58.333 51.807-14.048 81.315-13.8 17.925-2.237 38.21 18.624 35.991-3.717 12.5 6.311 22.611 14.979 21.949-29.258 10.736-18.8 26.568-15.721 30.96 6.408 9.145 24.615 9.265 35.693-1.695-7.568 21.075 15.388 43.835 43.984 27.986-7.716 13.7 7.454 33.974 23.344 25.16 2.609 18.157 26 23.025 40.3 8.818 0 0 3.285 10.207 21.485 9.605s20.807 4.686 20.807 4.686z" fill="#ffebd4"/><g fill="#1d1c1a"><path d="m244.066 188.994a40.251 40.251 0 0 1 -8.927-1.051 24.285 24.285 0 0 1 -16.058-11.6c-5.931-9.935-5.67-23.361-4.406-30.32a13.993 13.993 0 0 1 -10.394-3.013 30.394 30.394 0 0 1 -17.089 20.8c-11.424 5.111-24.923 2.776-38.014-6.575a1.5 1.5 0 1 1 1.744-2.441c12.187 8.705 24.633 10.934 35.045 6.278a27.126 27.126 0 0 0 15.813-21.291 1.5 1.5 0 0 1 2.629-.814 11.221 11.221 0 0 0 11.751 3.725 1.5 1.5 0 0 1 1.924 1.824c-1.445 5.194-2.551 20.033 3.573 30.292a21.385 21.385 0 0 0 14.143 10.209c29.767 6.754 38.437-23.555 38.791-24.85a1.505 1.505 0 0 1 1.843-1.052c2.65.724 10.339 2.137 14.025.029a1.5 1.5 0 0 1 2.229 1.519c-1.025 7.038 1.411 13.188 6.861 17.317 6.471 4.9 16.046 5.87 23.829 2.407 9.119-4.058 14.735-13.268 15.814-25.933a1.5 1.5 0 0 1 2.084-1.252c11.695 5 24.317 3.677 35.54-3.728 14.477-9.553 23.83-27.093 23.83-44.686a1.5 1.5 0 0 1 3 0c0 18.573-9.882 37.1-25.177 47.19-11.5 7.587-24.38 9.241-36.5 4.732-2.114 17.144-11.7 23.894-17.375 26.418a26.916 26.916 0 0 1 -26.861-2.756 20.574 20.574 0 0 1 -8.252-17.648c-4.323 1.128-9.885.181-12.448-.379-1.971 5.655-10.812 26.646-32.967 26.649z"/><path d="m108.446 224.806a64.293 64.293 0 0 1 -33.083-9.7 1.5 1.5 0 0 1 1.552-2.568c15.8 9.552 33.489 11.843 48.524 6.291 11.761-4.34 20.482-12.829 23.942-23.279a1.5 1.5 0 0 1 1.221-1.015c28.493-3.9 26.24-28.182 26.13-29.214a1.5 1.5 0 0 1 2.982-.324c1.055 9.621-3.445 28.6-27.79 32.377-3.934 10.919-13.157 19.732-25.446 24.271a51.9 51.9 0 0 1 -18.032 3.161z"/><path d="m66.835 328.963a1.5 1.5 0 0 1 -.847-2.74c13.9-9.474 21.339-20.421 21.515-31.659.168-10.769-6.41-21.808-18.047-30.287a1.5 1.5 0 0 1 .443-2.645c11.929-3.663 19.964-9.608 23.883-17.669 5.332-10.971 1.125-22.17 1.082-22.282a1.5 1.5 0 0 1 2.8-1.08c.2.507 4.714 12.541-1.183 24.673-3.983 8.195-11.7 14.351-22.97 18.326 11.006 8.818 17.165 20 16.992 31.011-.192 12.255-8.084 24.043-22.824 34.091a1.485 1.485 0 0 1 -.844.261z"/><path d="m56.875 415.149a21.688 21.688 0 0 1 -10.746-2.743 18.94 18.94 0 0 1 -9.638-18.87c.927-7.022 5.728-12.76 13.464-16.338a15.638 15.638 0 0 1 -6.848-5.256 18.577 18.577 0 0 1 -3.42-15.958c-.321.007-.639.01-.952.01-18.612 0-22.579-11.875-23.42-17.2-2.015-12.794 6.385-27.47 17.285-30.194a1.5 1.5 0 0 1 .728 2.911c-9.535 2.383-16.849 15.416-15.05 26.816 1.6 10.164 10.177 15.469 23.506 14.563a1.474 1.474 0 0 1 1.344.654 1.5 1.5 0 0 1 .111 1.49c-2.111 4.4-1.186 10.607 2.249 15.084 2.907 3.789 6.953 5.519 11.1 4.742a1.5 1.5 0 0 1 .657 2.926c-10.3 2.7-16.783 8.588-17.781 16.145a16.16 16.16 0 0 0 8.154 15.869c7.86 4.493 18.175 2.529 28.3-5.386a1.5 1.5 0 0 1 1.847 2.363c-8.265 6.466-15.38 8.372-20.89 8.372z"/><path d="m225.789 482.059a1.487 1.487 0 0 1 -.67-.158c-6.285-3.142-9.795-3.121-14.211-3.126-1.556.006-3.165.007-5.049-.111a33.43 33.43 0 0 0 -3.912.037c-4.986.245-9.318.467-17.536-8.9-5.922 5.69-15.775 7.841-25.14 5.351-8.114-2.16-13.991-7.383-16.089-14.171-4.859 2.081-11.69 1.078-17.086-2.706-3.364-2.357-10.543-9.008-8.455-21.758-17.962 6.723-28.428 1.907-34.106-3.492-8.567-8.144-10.2-21.1-7.492-30.424-9.468-2.7-11.549-10.438-11.279-14.347a1.5 1.5 0 0 1 2.993.2c-.025.424-.408 9.355 10.514 11.6a1.5 1.5 0 0 1 1.108 1.979c-2.987 8.26-1.822 21.165 6.223 28.812 5.3 5.041 15.417 9.455 33.5 1.86a1.5 1.5 0 0 1 2.034 1.752c-3.246 12.771 3.593 19.189 6.683 21.356 5.049 3.538 11.716 4.264 15.505 1.687a1.5 1.5 0 0 1 2.315.953c1.282 6.577 6.667 11.734 14.406 13.794 8.942 2.378 18.3.1 23.292-5.67a1.5 1.5 0 0 1 1.134-.52h.012a1.5 1.5 0 0 1 1.138.538c7.975 9.517 11.417 9.347 16.178 9.107a36.072 36.072 0 0 1 4.251-.035c1.787.113 3.344.115 4.853.1 4.635 0 8.639-.017 15.56 3.443a1.5 1.5 0 0 1 -.672 2.841z"/><path d="m276.042 162.062a1.538 1.538 0 0 1 -.431-.062c-13.155-3.938-20.837-18.945-21.158-19.582a1.5 1.5 0 0 1 2.679-1.35c.073.145 7.435 14.494 19.34 18.057a1.5 1.5 0 0 1 -.43 2.937z"/><path d="m296.041 130.436a1.5 1.5 0 0 1 0-3c23.388 0 28.711-17.555 28.926-18.3a1.5 1.5 0 0 1 2.886.82c-.053.202-6.095 20.48-31.812 20.48z"/></g></svg>